<svg width="28" height="29" viewBox="0 0 28 29" fill="none" xmlns="http://www.w3.org/2000/svg">
<g id="Layers_fill">
<path id="Vector 99" d="M13.1055 4.44721L6.45548 7.77224C5.67493 8.16251 5.28466 8.35765 5.28466 8.66667C5.28466 8.97568 5.67493 9.17082 6.45548 9.56109L13.1055 12.8861C13.5444 13.1056 13.7639 13.2153 14 13.2153C14.236 13.2153 14.4555 13.1056 14.8944 12.8861L21.5444 9.56109C22.325 9.17082 22.7153 8.97568 22.7153 8.66667C22.7153 8.35765 22.325 8.16251 21.5444 7.77224L14.8944 4.44721C14.4555 4.22776 14.236 4.11803 14 4.11803C13.7639 4.11803 13.5444 4.22776 13.1055 4.44721Z" fill="#747474"/>
<path id="Subtract" fill-rule="evenodd" clip-rule="evenodd" d="M8.17074 12.7483C8.57385 12.9542 9.01317 13.1739 9.48871 13.4116L12.2111 14.7728C13.0889 15.2118 13.5278 15.4312 14 15.4312C14.4721 15.4312 14.911 15.2118 15.7888 14.7728L18.5112 13.4116C18.9867 13.1739 19.4261 12.9542 19.8292 12.7483L21.5444 13.6059C22.325 13.9962 22.7153 14.1913 22.7153 14.5003C22.7153 14.8094 22.325 15.0045 21.5444 15.3948L14.8944 18.7198C14.4555 18.9393 14.236 19.049 14 19.049C13.7639 19.049 13.5444 18.9393 13.1055 18.7198L13.1055 18.7198L6.45549 15.3948C5.67494 15.0045 5.28467 14.8094 5.28467 14.5003C5.28467 14.1913 5.67494 13.9962 6.45549 13.6059L8.17074 12.7483Z" fill="#747474"/>
<path id="Subtract_2" fill-rule="evenodd" clip-rule="evenodd" d="M8.17017 18.5815C8.57344 18.7876 9.01297 19.0073 9.48874 19.2452L12.2111 20.6064C13.0889 21.0453 13.5279 21.2648 14 21.2648C14.4721 21.2648 14.911 21.0453 15.7888 20.6064L18.5112 19.2452C18.987 19.0073 19.4265 18.7876 19.8298 18.5816L21.5444 19.4389C22.325 19.8292 22.7153 20.0243 22.7153 20.3333C22.7153 20.6423 22.325 20.8375 21.5444 21.2277L14.8944 24.5528C14.4555 24.7722 14.236 24.8819 14 24.8819C13.7639 24.8819 13.5444 24.7722 13.1055 24.5528L13.1055 24.5528L6.45549 21.2277C5.67494 20.8375 5.28467 20.6423 5.28467 20.3333C5.28467 20.0243 5.67494 19.8292 6.45549 19.4389L8.17017 18.5815Z" fill="#747474"/>
</g>
</svg>
