<svg width="28" height="29" viewBox="0 0 28 29" fill="none" xmlns="http://www.w3.org/2000/svg">
<path d="M13.1059 4.44721L6.45585 7.77224C5.6753 8.16251 5.28503 8.35765 5.28503 8.66667C5.28503 8.97568 5.6753 9.17082 6.45584 9.56109L13.1059 12.8861C13.5448 13.1056 13.7643 13.2153 14.0003 13.2153C14.2364 13.2153 14.4558 13.1056 14.8948 12.8861L21.5448 9.56109C22.3254 9.17082 22.7156 8.97568 22.7156 8.66667C22.7156 8.35765 22.3254 8.16251 21.5448 7.77224L14.8948 4.44721C14.4558 4.22776 14.2364 4.11803 14.0003 4.11803C13.7643 4.11803 13.5448 4.22776 13.1059 4.44721Z" fill="#70339D"/>
<path fill-rule="evenodd" clip-rule="evenodd" d="M8.17123 12.7483C8.57434 12.9542 9.01366 13.1739 9.4892 13.4116L12.2116 14.7728C13.0894 15.2118 13.5283 15.4312 14.0004 15.4312C14.4726 15.4312 14.9115 15.2118 15.7893 14.7728L18.5117 13.4116C18.9872 13.1739 19.4266 12.9542 19.8297 12.7483L21.5449 13.6059C22.3255 13.9962 22.7158 14.1913 22.7158 14.5003C22.7158 14.8094 22.3255 15.0045 21.5449 15.3948L14.8949 18.7198C14.456 18.9393 14.2365 19.049 14.0005 19.049C13.7644 19.049 13.5449 18.9393 13.106 18.7198L13.106 18.7198L6.45597 15.3948C5.67543 15.0045 5.28516 14.8094 5.28516 14.5003C5.28516 14.1913 5.67543 13.9962 6.45598 13.6059L8.17123 12.7483Z" fill="#70339D"/>
<path fill-rule="evenodd" clip-rule="evenodd" d="M8.17066 18.5817C8.57393 18.7877 9.01345 19.0074 9.48922 19.2453L12.2116 20.6065C13.0894 21.0454 13.5283 21.2649 14.0005 21.2649C14.4726 21.2649 14.9115 21.0454 15.7893 20.6065L18.5117 19.2453C18.9875 19.0074 19.427 18.7877 19.8303 18.5817L21.5449 19.439C22.3255 19.8293 22.7158 20.0244 22.7158 20.3334C22.7158 20.6425 22.3255 20.8376 21.5449 21.2279L14.8949 24.5529C14.456 24.7723 14.2365 24.8821 14.0005 24.8821C13.7644 24.8821 13.5449 24.7723 13.106 24.5529L13.106 24.5529L6.45597 21.2279C5.67543 20.8376 5.28516 20.6425 5.28516 20.3334C5.28516 20.0244 5.67543 19.8293 6.45598 19.439L8.17066 18.5817Z" fill="#70339D"/>
</svg>
