<svg width="23" height="23" viewBox="0 0 23 23" fill="none" xmlns="http://www.w3.org/2000/svg">
<g id="vuesax/bold/shop">
<g id="vuesax/bold/shop_2">
<g id="shop">
<path id="Vector" d="M21.1633 8.08075L20.8975 5.54159C20.5125 2.77325 19.2567 1.64575 16.5708 1.64575H14.4075H13.0508H10.2642H8.9075H6.7075C4.0125 1.64575 2.76584 2.77325 2.37167 5.56909L2.12417 8.08992C2.0325 9.07075 2.29834 10.0241 2.87584 10.7666C3.5725 11.6741 4.645 12.1874 5.83667 12.1874C6.99167 12.1874 8.10084 11.6099 8.7975 10.6841C9.42084 11.6099 10.4842 12.1874 11.6667 12.1874C12.8492 12.1874 13.885 11.6374 14.5175 10.7208C15.2233 11.6283 16.3142 12.1874 17.4508 12.1874C18.67 12.1874 19.77 11.6466 20.4575 10.6933C21.0075 9.95992 21.255 9.03409 21.1633 8.08075Z" fill="#747474"/>
<path id="Vector_2" d="M11.0708 15.7716C9.90661 15.8907 9.02661 16.8807 9.02661 18.0541V20.5657C9.02661 20.8132 9.22828 21.0149 9.47578 21.0149H13.8483C14.0958 21.0149 14.2974 20.8132 14.2974 20.5657V18.3749C14.3066 16.4591 13.1791 15.5516 11.0708 15.7716Z" fill="#747474"/>
<path id="Vector_3" d="M20.2558 13.7001V16.4317C20.2558 18.9617 18.2025 21.0151 15.6725 21.0151C15.425 21.0151 15.2233 20.8134 15.2233 20.5659V18.3751C15.2233 17.2017 14.8658 16.2851 14.1692 15.6617C13.555 15.1026 12.7208 14.8276 11.685 14.8276C11.4558 14.8276 11.2267 14.8367 10.9792 14.8642C9.34751 15.0292 8.11001 16.4042 8.11001 18.0542V20.5659C8.11001 20.8134 7.90835 21.0151 7.66085 21.0151C5.13085 21.0151 3.07751 18.9617 3.07751 16.4317V13.7184C3.07751 13.0767 3.71001 12.6459 4.30585 12.8567C4.55335 12.9392 4.80085 13.0034 5.05751 13.0401C5.16751 13.0584 5.28668 13.0767 5.39668 13.0767C5.54335 13.0951 5.69001 13.1042 5.83668 13.1042C6.90001 13.1042 7.94501 12.7101 8.77001 12.0317C9.55835 12.7101 10.585 13.1042 11.6667 13.1042C12.7575 13.1042 13.7658 12.7284 14.5542 12.0501C15.3792 12.7192 16.4058 13.1042 17.4508 13.1042C17.6158 13.1042 17.7808 13.0951 17.9367 13.0767C18.0467 13.0676 18.1475 13.0584 18.2483 13.0401C18.5325 13.0034 18.7892 12.9209 19.0458 12.8384C19.6417 12.6367 20.2558 13.0767 20.2558 13.7001Z" fill="#747474"/>
</g>
</g>
</g>
</svg>
