<svg width="23" height="23" viewBox="0 0 23 23" fill="none" xmlns="http://www.w3.org/2000/svg">
<path d="M20.8294 8.081L20.5635 5.54183C20.1785 2.7735 18.9227 1.646 16.2369 1.646H14.0735H12.7169H9.93019H8.57352H6.37352C3.67852 1.646 2.43185 2.7735 2.03769 5.56933L1.79019 8.09016C1.69852 9.071 1.96435 10.0243 2.54185 10.7668C3.23852 11.6743 4.31102 12.1877 5.50269 12.1877C6.65769 12.1877 7.76685 11.6102 8.46352 10.6843C9.08685 11.6102 10.1502 12.1877 11.3327 12.1877C12.5152 12.1877 13.551 11.6377 14.1835 10.721C14.8894 11.6285 15.9802 12.1877 17.1169 12.1877C18.336 12.1877 19.436 11.6468 20.1235 10.6935C20.6735 9.96016 20.921 9.03433 20.8294 8.081Z" fill="#70339D"/>
<path d="M10.7375 15.7716C9.57336 15.8907 8.69336 16.8807 8.69336 18.0541V20.5657C8.69336 20.8132 8.89503 21.0149 9.14253 21.0149H13.515C13.7625 21.0149 13.9642 20.8132 13.9642 20.5657V18.3749C13.9734 16.4591 12.8459 15.5516 10.7375 15.7716Z" fill="#70339D"/>
<path d="M19.9225 13.7001V16.4317C19.9225 18.9617 17.8691 21.0151 15.3391 21.0151C15.0916 21.0151 14.89 20.8134 14.89 20.5659V18.3751C14.89 17.2017 14.5325 16.2851 13.8358 15.6617C13.2216 15.1026 12.3875 14.8276 11.3516 14.8276C11.1225 14.8276 10.8933 14.8367 10.6458 14.8642C9.01414 15.0292 7.77664 16.4042 7.77664 18.0542V20.5659C7.77664 20.8134 7.57497 21.0151 7.32747 21.0151C4.79747 21.0151 2.74414 18.9617 2.74414 16.4317V13.7184C2.74414 13.0767 3.37664 12.6459 3.97247 12.8567C4.21997 12.9392 4.46747 13.0034 4.72414 13.0401C4.83414 13.0584 4.95331 13.0767 5.06331 13.0767C5.20997 13.0951 5.35664 13.1042 5.50331 13.1042C6.56664 13.1042 7.61164 12.7101 8.43664 12.0317C9.22497 12.7101 10.2516 13.1042 11.3333 13.1042C12.4241 13.1042 13.4325 12.7284 14.2208 12.0501C15.0458 12.7192 16.0725 13.1042 17.1175 13.1042C17.2825 13.1042 17.4475 13.0951 17.6033 13.0767C17.7133 13.0676 17.8141 13.0584 17.915 13.0401C18.1991 13.0034 18.4558 12.9209 18.7125 12.8384C19.3083 12.6367 19.9225 13.0767 19.9225 13.7001Z" fill="#70339D"/>
</svg>
