<svg width="29" height="29" viewBox="0 0 29 29" fill="none" xmlns="http://www.w3.org/2000/svg">
<path d="M3.66699 12.1667C3.66699 9.96678 3.66699 8.86684 4.35041 8.18342C5.03383 7.5 6.13377 7.5 8.33366 7.5H20.0003C22.2002 7.5 23.3002 7.5 23.9836 8.18342C24.667 8.86684 24.667 9.96678 24.667 12.1667V16.8333C24.667 19.0332 24.667 20.1332 23.9836 20.8166C23.3002 21.5 22.2002 21.5 20.0003 21.5H8.33366C6.13377 21.5 5.03383 21.5 4.35041 20.8166C3.66699 20.1332 3.66699 19.0332 3.66699 16.8333V12.1667Z" fill="#70339D"/>
<circle cx="14.1673" cy="14.5001" r="2.33333" fill="white"/>
<rect x="6" y="9.83325" width="3.5" height="1.16667" rx="0.583333" fill="white"/>
<rect x="18.834" y="18" width="3.5" height="1.16667" rx="0.583333" fill="white"/>
</svg>
