<svg width="25" height="25" viewBox="0 0 25 25" fill="none" xmlns="http://www.w3.org/2000/svg">
<g id="vuesax/bold/activity">
<g id="activity">
<path id="Vector" d="M16.69 2.5H8.31C4.67 2.5 2.5 4.67 2.5 8.31V16.68C2.5 20.33 4.67 22.5 8.31 22.5H16.68C20.32 22.5 22.49 20.33 22.49 16.69V8.31C22.5 4.67 20.33 2.5 16.69 2.5ZM17.76 10.46L15.45 13.44C15.16 13.81 14.75 14.05 14.28 14.1C13.81 14.16 13.35 14.03 12.98 13.74L11.15 12.3C11.08 12.24 11 12.24 10.96 12.25C10.92 12.25 10.85 12.27 10.79 12.35L8.41 15.44C8.26 15.63 8.04 15.73 7.82 15.73C7.66 15.73 7.5 15.68 7.36 15.57C7.03 15.32 6.97 14.85 7.22 14.52L9.6 11.43C9.89 11.06 10.3 10.82 10.77 10.76C11.23 10.7 11.7 10.83 12.07 11.12L13.9 12.56C13.97 12.62 14.04 12.62 14.09 12.61C14.13 12.61 14.2 12.59 14.26 12.51L16.57 9.53C16.82 9.2 17.3 9.14 17.62 9.4C17.95 9.67 18.01 10.14 17.76 10.46Z" fill="#70339D"/>
</g>
</g>
</svg>
